<svg id="Capa_1" enable-background="new 0 0 512 512" height="512" viewBox="0 0 512 512" width="512" xmlns="http://www.w3.org/2000/svg"><g><path d="m103.043 86.755v156.154h41.903c-4.783-5.97-7.65-13.541-7.65-21.785 0-19.262 15.615-34.877 34.877-34.877s34.877 15.615 34.877 34.877c0 8.244-2.867 15.815-7.65 21.785h232.775v-156.154z" fill="#88f8d8"/><g><path d="m432.175 250.408h-232.775c-2.884 0-5.513-1.653-6.761-4.254-1.249-2.6-.896-5.685.908-7.936 3.927-4.901 6.003-10.813 6.003-17.096 0-15.096-12.281-27.377-27.377-27.377s-27.377 12.281-27.377 27.377c0 6.282 2.076 12.194 6.003 17.096 1.803 2.251 2.156 5.336.908 7.936-1.249 2.601-3.877 4.254-6.761 4.254h-41.903c-4.142 0-7.5-3.357-7.5-7.5v-156.153c0-4.143 3.358-7.5 7.5-7.5h329.132c4.143 0 7.5 3.357 7.5 7.5v156.153c0 4.143-3.357 7.5-7.5 7.5zm-220.117-15h212.617v-141.153h-314.132v141.153h21.745c-1.634-4.561-2.492-9.398-2.492-14.285 0-23.367 19.01-42.377 42.377-42.377s42.377 19.01 42.377 42.377c0 4.887-.857 9.725-2.492 14.285z" fill="#007ea8"/></g><path d="m199.4 242.908c-6.392 7.978-16.209 13.092-27.227 13.092s-20.835-5.114-27.227-13.092h-41.903l-80.285 88.162h287.07l122.347-88.161h-232.775z" fill="#9448f5"/><g><path d="m309.828 338.569h-287.07c-2.97 0-5.66-1.752-6.86-4.469s-.685-5.886 1.315-8.081l80.285-88.161c1.421-1.561 3.435-2.45 5.545-2.45h41.903c2.276 0 4.43 1.034 5.853 2.811 5.235 6.534 13.025 10.281 21.374 10.281s16.139-3.747 21.374-10.281c1.423-1.776 3.577-2.811 5.853-2.811h232.775c3.255 0 6.138 2.099 7.138 5.196.999 3.098-.112 6.486-2.753 8.389l-122.347 88.161c-1.277.92-2.811 1.415-4.385 1.415zm-270.096-15h267.676l101.53-73.161h-206.143c-7.98 8.362-18.947 13.092-30.622 13.092s-22.642-4.729-30.622-13.092h-35.194z" fill="#6d00ca"/></g><path d="m369.871 86.755h-297.585c-14.963 0-27.088-12.124-27.088-27.077v-25.1c0-14.954 12.124-27.078 27.088-27.078h297.586c-14.963 0-27.088 12.124-27.088 27.077v25.1c0 14.953 12.124 27.078 27.087 27.078z" fill="#ffd600"/><path d="m172.173 256c-6.876 0-13.281-1.998-18.683-5.433v27.81c0 10.318 8.365 18.683 18.683 18.683 10.319 0 18.683-8.365 18.683-18.683v-27.81c-5.402 3.435-11.807 5.433-18.683 5.433z" fill="#ddbeff"/><circle cx="172.173" cy="221.123" fill="#ff9bff" r="34.877"/><g><path d="m172.173 304.561c-14.438 0-26.184-11.746-26.184-26.184v-27.81c0-2.736 1.491-5.256 3.89-6.574 2.399-1.317 5.325-1.225 7.634.245 4.385 2.788 9.455 4.262 14.66 4.262s10.274-1.474 14.66-4.262c2.31-1.47 5.235-1.562 7.634-.245 2.399 1.318 3.89 3.838 3.89 6.574v27.81c0 14.437-11.747 26.184-26.184 26.184zm-11.184-42.561v16.377c0 6.167 5.017 11.184 11.184 11.184s11.184-5.017 11.184-11.184v-16.377c-7.245 1.982-15.123 1.982-22.368 0z" fill="#6d00ca"/></g><g><path d="m172.173 263.5c-23.367 0-42.377-19.01-42.377-42.377s19.01-42.377 42.377-42.377 42.377 19.01 42.377 42.377-19.01 42.377-42.377 42.377zm0-69.754c-15.096 0-27.377 12.281-27.377 27.377s12.281 27.377 27.377 27.377 27.377-12.281 27.377-27.377-12.281-27.377-27.377-27.377z" fill="#e207b9"/></g><circle cx="325.994" cy="144.183" fill="#007ea8" r="12.388"/><g><path d="m293.84 173.444h-52.462c-4.142 0-7.5-3.357-7.5-7.5s3.358-7.5 7.5-7.5h52.462c4.143 0 7.5 3.357 7.5 7.5s-3.357 7.5-7.5 7.5z" fill="#007ea8"/></g><circle cx="209.224" cy="144.183" fill="#007ea8" r="12.388"/><path d="m489.242 49.551v412.898c0 23.229-18.823 42.051-42.051 42.051h-137.363v-173.43l122.347-88.161v-156.154h-62.304c-14.963 0-27.088-12.124-27.088-27.077v-25.1c0-14.953 12.124-27.077 27.088-27.077h77.32c23.229-.001 42.051 18.822 42.051 42.05z" fill="#f90"/><path d="m309.828 331.07v173.43h-233.252c-29.717 0-53.818-24.101-53.818-53.818v-119.612z" fill="#ffd600"/><path d="m447.192 0c-5.048 0-362.989 0-374.906 0-19.072 0-34.588 15.512-34.588 34.577v25.101c0 19.066 15.516 34.577 34.588 34.577h352.389v144.813l-117.268 84.501h-284.649c-4.142 0-7.5 3.357-7.5 7.5v119.613c0 33.811 27.507 61.317 61.318 61.317h370.616c27.322 0 49.551-22.229 49.551-49.551v-412.896c-.001-27.323-22.229-49.552-49.551-49.552zm-374.906 79.255c-10.801 0-19.588-8.782-19.588-19.577v-25.101c0-10.795 8.787-19.577 19.588-19.577h269.089c-3.857 5.586-6.092 12.426-6.092 19.577v25.101c0 6.869 2.055 13.705 6.092 19.577zm-42.028 371.428v-112.114h272.07v158.431h-225.752c-25.54 0-46.318-20.778-46.318-46.317zm451.484 11.766c0 19.052-15.499 34.551-34.551 34.551h-129.863v-162.091l119.231-85.916c1.956-1.41 3.115-3.674 3.115-6.085v-156.153c0-4.143-3.357-7.5-7.5-7.5h-62.304c-10.801 0-19.588-8.782-19.588-19.577v-25.101c0-10.795 8.787-19.577 19.588-19.577h77.32c19.052 0 34.551 15.5 34.551 34.552v412.897z" fill="#f95116"/><path d="m183.417 373.755h-34.247c-10.971 0-19.866 8.894-19.866 19.866v48.329c0 10.972 8.894 19.866 19.866 19.866h34.247c10.972 0 19.866-8.894 19.866-19.866v-48.33c0-10.971-8.895-19.865-19.866-19.865z" fill="#9448f5"/><g><path d="m183.417 469.315h-34.247c-15.089 0-27.366-12.276-27.366-27.366v-48.329c0-15.089 12.276-27.365 27.366-27.365h34.248c15.089 0 27.365 12.276 27.365 27.365v48.329c-.001 15.09-12.277 27.366-27.366 27.366zm-34.247-88.06c-6.818 0-12.366 5.547-12.366 12.365v48.329c0 6.818 5.547 12.366 12.366 12.366h34.248c6.818 0 12.365-5.548 12.365-12.366v-48.329c0-6.818-5.547-12.365-12.365-12.365z" fill="#6d00ca"/></g><g><path d="m166.293 437.779c-4.142 0-7.5-3.357-7.5-7.5v-24.989c0-4.143 3.358-7.5 7.5-7.5s7.5 3.357 7.5 7.5v24.989c0 4.143-3.358 7.5-7.5 7.5z" fill="#6d00ca"/></g></g></svg>